<svg width="128" height="128" viewBox="0 0 24 24" fill="none" xmlns="http://www.w3.org/2000/svg">
  <!-- Document Shape -->
  <path d="M7 2H14L19 7V20C19 21.1 18.1 22 17 22H7C5.9 22 5 21.1 5 20V4C5 2.9 5.9 2 7 2Z" 
    stroke="#2563EB" stroke-width="1.8" stroke-linecap="round" stroke-linejoin="round"/>
  
  <!-- Folded Corner -->
  <path d="M14 2V7H19" 
    stroke="#2563EB" stroke-width="1.8" stroke-linecap="round" stroke-linejoin="round"/>

  <!-- Conversion Arrows -->
  <path d="M8 12C8 9.79 9.79 8 12 8C13.02 8 13.95 8.38 14.67 9" 
    stroke="#10B981" stroke-width="1.8" stroke-linecap="round"/>

  <path d="M16 12C16 14.21 14.21 16 12 16C10.98 16 10.05 15.62 9.33 15" 
    stroke="#10B981" stroke-width="1.8" stroke-linecap="round"/>

  <!-- Arrow Heads -->
  <path d="M14.7 9L15 7.5L16.2 8.5" stroke="#10B981" stroke-width="1.8" stroke-linecap="round" stroke-linejoin="round"/>
  <path d="M9.3 15L9 16.5L7.8 15.5" stroke="#10B981" stroke-width="1.8" stroke-linecap="round" stroke-linejoin="round"/>
</svg>

